{"title":"Groove (2000) DVDrip-XviD-MP3","uid":7756955,"size":736135409,"categoryP":"video","categoryS":"movies","magnet":"?xt=urn:btih:a8794df8ecda1cc97ac8056d5f30bc83b738a7d3&amp;dn=Groove+%282000%29+DVDrip-XviD-MP3&amp;tr=udp%3A%2F%2Ftracker.openbittorrent.com%3A80&amp;tr=udp%3A%2F%2Fopen.demonii.com%3A1337&amp;tr=udp%3A%2F%2Ftracker.coppersurfer.tk%3A6969&amp;tr=udp%3A%2F%2Fexodus.desync.com%3A6969","seeders":0,"leechers":1,"uploader":"g1-b1","files":2,"time":1351125510,"description":"An inside look into one night in the San Francisco underground rave scene.\n\n===================================================================================\n\nGeneral\nFormat                         : AVI\nFormat/Info                    : Audio Video Interleave\nFile size                      : 702 MiB\nDuration                       : 1h 20mn\nOverall bit rate               : 1 221 Kbps\nMovie name                     : Groove\nSubject                        : Groove\nWriting application            : Nandub v1.0rc2\nWriting library                : Nandub build 1852/release\n\nVideo\nID                             : 0\nFormat                         : MPEG-4 Visual\nFormat profile                 : Advanced Simple@L5\nFormat settings, BVOP          : 2\nFormat settings, QPel          : Yes\nFormat settings, GMC           : 3 warppoints\nFormat settings, Matrix        : Default (H.263)\nMuxing mode                    : Packed bitstream\nCodec ID                       : XVID\nCodec ID/Hint                  : XviD\nDuration                       : 1h 20mn\nBit rate                       : 984 Kbps\nWidth                          : 592 pixels\nHeight                         : 314 pixels\nDisplay aspect ratio           : 1.885\nFrame rate                     : 25.000 fps\nColor space                    : YUV\nChroma subsampling             : 4:2:0\nBit depth                      : 8 bits\nScan type                      : Progressive\nCompression mode               : Lossy\nBits/(Pixel*Frame)             : 0.212\nStream size                    : 566 MiB (81%)\nWriting library                : XviD 1.0.1 (UTC 2004-06-05)\n\nAudio\nID                             : 1\nFormat                         : MPEG Audio\nFormat version                 : Version 1\nFormat profile                 : Layer 3\nMode                           : Joint stereo\nCodec ID                       : 55\nCodec ID/Hint                  : MP3\nDuration                       : 1h 20mn\nBit rate mode                  : Constant\nBit rate                       : 224 Kbps\nChannel(s)                     : 2 channels\nSampling rate                  : 48.0 KHz\nCompression mode               : Lossy\nStream size                    : 129 MiB (18%)\nAlignment                      : Aligned on interleaves\nInterleave, duration           : 24 ms (0.60 video frame)\nInterleave, preload duration   : 480 ms\nWriting library                : LAME3.90.3\n","torrent":{"xt":"urn:btih:a8794df8ecda1cc97ac8056d5f30bc83b738a7d3","amp;dn":"Groove+%282000%29+DVDrip-XviD-MP3","amp;tr":["udp%3A%2F%2Ftracker.openbittorrent.com%3A80","udp%3A%2F%2Fopen.demonii.com%3A1337","udp%3A%2F%2Ftracker.coppersurfer.tk%3A6969","udp%3A%2F%2Fexodus.desync.com%3A6969"],"infoHash":"a8794df8ecda1cc97ac8056d5f30bc83b738a7d3","infoHashBuffer":{"type":"Buffer","data":[168,121,77,248,236,218,28,201,122,200,5,109,95,48,188,131,183,56,167,211]},"announce":[],"urlList":[]}}